<?xml version="1.0" encoding="utf-8"?>
<!-- Generator: Adobe Illustrator 25.2.3, SVG Export Plug-In . SVG Version: 6.00 Build 0)  -->
<svg version="1.1" id="Calque_1" xmlns="http://www.w3.org/2000/svg" xmlns:xlink="http://www.w3.org/1999/xlink" x="0px" y="0px"
	 viewBox="0 0 894.7 302.2" style="enable-background:new 0 0 894.7 302.2;" xml:space="preserve">
<style type="text/css">
	.st0{fill:#081F39;}
	.st1{clip-path:url(#SVGID_2_);fill:url(#SVGID_3_);}
	.st2{clip-path:url(#SVGID_5_);fill:url(#SVGID_6_);}
</style>
<path class="st0" d="M863,104.7v24.9h6.8v92h25V104.7H863z M821.4,104.7v24.9h6.8v92h25V104.7H821.4z M758.8,171.7
	c1-3.7,3-6.9,6-9.7c3-2.8,6.9-4.2,11.5-4.2c4.7,0,8.5,1.4,11.6,4.2c3,2.8,5,6,6,9.7H758.8z M814.7,160.9c-2.2-5.5-5.1-10.2-8.9-14
	c-3.8-3.9-8.2-6.9-13.2-9c-5-2.1-10.5-3.2-16.3-3.2c-6,0-11.7,1.1-16.9,3.4c-5.2,2.3-9.8,5.4-13.8,9.5c-3.9,4-7,8.7-9.3,14
	c-2.3,5.4-3.4,11.2-3.4,17.5c0,6.3,1.1,12.1,3.4,17.5c2.3,5.4,5.4,10.1,9.3,14.1c3.9,4,8.4,7.2,13.5,9.4c5.1,2.3,10.6,3.4,16.4,3.4
	c5.6,0,10.5-0.7,14.9-2.2c4.4-1.5,8.2-3.5,11.5-6c3.3-2.5,6.1-5.4,8.3-8.6c2.2-3.2,3.9-6.5,5-10l-25.9-1.9c-0.7,1.1-1.7,2-3,2.8
	c-1,0.7-2.3,1.4-4,1.9c-1.7,0.5-3.7,0.8-6,0.8c-4.7,0-8.5-1.4-11.5-4.1c-3-2.7-5-5.7-6-8.9H817c0.1-0.9,0.3-1.8,0.4-2.8
	c0.1-0.9,0.3-1.7,0.4-2.7c0.1-0.9,0.2-1.9,0.2-2.9C817.9,172.4,816.8,166.4,814.7,160.9z M696.3,194.4c-1.2,1.5-2.9,2.8-4.9,4.1
	c-2,1.2-4.6,1.9-7.5,1.9c-5.2,0-9.5-1.9-13.1-5.7c-3.6-3.8-5.4-9-5.4-15.6c0-6.5,1.8-11.7,5.4-15.5c3.6-3.8,7.9-5.7,13.1-5.7
	c2.9,0,5.5,0.6,7.5,1.9c2,1.3,3.7,2.7,4.9,4.2c1.3,1.7,2.5,3.7,3.3,5.9l24.9-1.8c-1.6-6.2-4.1-11.7-7.6-16.6
	c-1.5-2.1-3.2-4.1-5.3-6.1c-2-2-4.4-3.8-7.1-5.4c-2.7-1.6-5.8-2.9-9.3-3.8c-3.4-0.9-7.3-1.4-11.5-1.4c-6,0-11.7,1.1-16.9,3.4
	c-5.2,2.3-9.8,5.4-13.8,9.5c-3.9,4-7,8.7-9.3,14c-2.3,5.4-3.4,11.2-3.4,17.5c0,6.3,1.1,12.1,3.4,17.5c2.3,5.4,5.4,10.1,9.3,14.1
	c4,4,8.5,7.2,13.8,9.4c5.2,2.3,10.9,3.4,16.9,3.4c4.2,0,8-0.5,11.5-1.4c3.5-0.9,6.5-2.2,9.3-3.8c2.7-1.6,5.1-3.4,7.1-5.4
	c2-2,3.8-4,5.3-6.1c3.4-5,6-10.5,7.6-16.6l-24.9-1.9C698.7,190.7,697.6,192.7,696.3,194.4z M626.5,156.7c-1.7-4.4-4-8.2-7-11.4
	c-3-3.2-6.6-5.6-10.8-7.2c-4.2-1.7-8.8-2.5-13.9-2.5c-3.7,0-7.1,0.5-10.2,1.5c-3.1,1-5.7,2-7.9,3.1c-2.6,1.4-4.9,2.9-6.8,4.6
	c-2.3-5.1-7.3-8.3-12.8-8.3h-9.4v85.1h25v-45.3c0-5.5,1.4-9.9,4.3-12.9c2.9-3.1,6.7-4.6,11.4-4.6c4.7,0,8.5,1.5,11.4,4.6
	c2.9,3.1,4.4,7.4,4.4,12.9v45.3h25v-49.9C629,166.1,628.2,161.1,626.5,156.7z M505.9,136.5v45.3c0,5.6-1.5,9.9-4.4,12.9
	c-2.9,3.1-6.7,4.6-11.4,4.6c-4.7,0-8.5-1.5-11.4-4.6c-2.9-3.1-4.3-7.4-4.3-12.9v-45.3h-25v49.9c0,5.6,0.8,10.5,2.5,15
	c1.7,4.4,4,8.2,7,11.4c3,3.2,6.6,5.6,10.8,7.2c4.2,1.7,8.8,2.5,13.9,2.5c3.7,0,7.1-0.5,10.1-1.4c3-0.9,5.6-2,7.9-3.2
	c2.6-1.3,4.9-2.9,7-4.6l-0.1,8.3h22.3v-85.1H505.9z M434.1,184.1c-2.2-3.4-4.8-6-8-8c-3.2-2-6.7-3.7-10.5-4.9
	c-3.8-1.2-7.2-2.3-10.5-3.2c-3.2-0.9-5.9-1.8-8-2.7c-2.1-0.9-3.2-2.1-3.2-3.7c0-1.9,0.7-3.4,2-4.6c1.4-1.2,3.5-1.9,6.3-1.9
	c2.8,0,5.1,0.8,6.8,2.3c1.7,1.5,2.8,3.2,3.3,5.1l24-1.8c-1.3-7.4-4.9-13.6-10.7-18.5c-5.8-4.9-14.2-7.4-25.3-7.4
	c-5,0-9.6,0.7-13.6,2.1c-4,1.4-7.4,3.3-10.2,5.6c-2.8,2.3-4.9,5.1-6.4,8.2c-1.5,3.2-2.2,6.4-2.2,9.9c0,5,1.1,9.2,3.2,12.6
	c2.1,3.3,4.8,6,8,8c3.2,2.1,6.7,3.7,10.5,4.9c3.8,1.2,7.2,2.3,10.5,3.2c3.2,0.9,5.9,1.8,8,2.7c2.1,0.9,3.2,2.1,3.2,3.6
	c0,1.9-0.9,3.6-2.7,5.1c-1.8,1.5-4.3,2.3-7.5,2.3c-3.2,0-5.8-0.9-7.6-2.5c-1.9-1.7-3-3.9-3.5-6.7l-24,1.8c1.3,8.4,5,15.1,10.8,20.2
	c5.8,5,14.6,7.6,26.1,7.6c5.3,0,10.1-0.7,14.3-2.2c4.3-1.5,7.9-3.5,10.8-6c3-2.5,5.2-5.4,6.8-8.6c1.5-3.2,2.3-6.5,2.3-10
	C437.3,191.6,436.3,187.4,434.1,184.1z"/>
<g>
	<defs>
		<path id="SVGID_1_" d="M108,205.5c1.8,20.1,10.9,38.3,22.7,53.7c19.8-17.5,34.8-40.1,44.4-64.6l0.5-1.2l10.5,10.4l21.3-68.9
			l-24,43.1l-13.1-14.7c-6,20.5-20.5,57.6-38.1,70.1l-1.4-2.6c-3.6-7.5-5.7-14.9-6.6-22.3c-2.9-23.8,7.1-46.6,23.1-66.1
			c16-19.4,38-35.4,59.3-45.6c13.1-6.3,25.8-10.3,36.8-11.7l1.4-0.2l-0.4,1.3c-2.1,6.1-2.6,13.9-1.9,21.7c0.7,8,2.8,15.9,5.9,22.1
			c8.9,17.5,8.9,38.5,2.9,58c-6.4,21-19.8,40.2-36.3,51.2c-8.9,5.9-18.5,10.5-28.4,13c-9,2.3-18.2,3-27.2,1.6
			c-6,6.7-16,16.5-27,25.9c-7.7,6.6-15.9,13-23.4,18c9.7-1.7,18.4-4.5,26.4-8.4c9.1-4.5,17.5-10.3,25.7-17.6l0.6-0.2
			c8.6-0.2,17.8-1.5,27.8-4.6c10-3.1,20.6-8,32.1-15.2c20.5-13,36-32,43.2-54.9c6.7-21,6.4-45.4-3.2-71.6c-4.1-11-6.8-21.1-5.8-31
			c1-9.3,5.4-18.4,15.2-27.9c-32.9,2.8-62,12.6-86.1,26.2c-28.4,16-50,37.3-63.1,59C110.2,170.5,106.5,188.7,108,205.5"/>
	</defs>
	<clipPath id="SVGID_2_">
		<use xlink:href="#SVGID_1_"  style="overflow:visible;"/>
	</clipPath>
	<linearGradient id="SVGID_3_" gradientUnits="userSpaceOnUse" x1="155.2225" y1="255.7212" x2="215.2025" y2="124.6514">
		<stop  offset="0" style="stop-color:#2D8710"/>
		<stop  offset="1" style="stop-color:#8FD011"/>
	</linearGradient>
	<rect x="106.5" y="66.2" class="st1" width="164.8" height="231.6"/>
</g>
<g>
	<defs>
		<path id="SVGID_4_" d="M162,0l6,9.2c2.8,4.2,2.6,11.5-0.5,16.2l-5.5,8.4l-6-9.2c-2.8-4.2-2.6-11.5,0.5-16.2L162,0z M203.9,5.5
			l3.4,10.4c1.6,4.8-0.5,11.8-4.6,15.5l-7.5,6.7l-3.4-10.4c-1.6-4.8,0.5-11.8,4.6-15.5L203.9,5.5z M242.9,21.7l0.6,10.9
			c0.3,5.1-3.5,11.2-8.5,13.8l-9,4.6L225.5,40c-0.3-5.1,3.5-11.2,8.5-13.8L242.9,21.7z M120,5.5l8.1,7.3c3.8,3.4,5.4,10.5,3.7,15.7
			l-3.1,9.6l-8.1-7.3c-3.8-3.4-5.4-10.5-3.7-15.7L120,5.5z M81,21.7l9.8,5c4.5,2.3,8,8.7,7.7,14.2l-0.5,10.1l-9.7-5
			c-4.5-2.3-8-8.7-7.7-14.2L81,21.7z M47.4,47.4l10.7,2.3c5,1,9.9,6.3,11.1,11.8l2.1,9.9l-10.7-2.3c-5-1-9.9-6.3-11.1-11.8
			L47.4,47.4z M21.7,81l10.9-0.6c5.1-0.3,11.2,3.5,13.8,8.5l4.6,9L40,98.5C35,98.7,28.8,94.9,26.3,90L21.7,81z M5.5,120l10.4-3.4
			c4.8-1.6,11.8,0.5,15.5,4.6l6.7,7.5l-10.4,3.4c-4.8,1.6-11.8-0.5-15.5-4.6L5.5,120z M0,162l9.2-6c4.2-2.8,11.5-2.6,16.2,0.5
			l8.4,5.5l-9.2,6c-4.2,2.8-11.5,2.6-16.2-0.5L0,162z M5.5,203.9l7.3-8.1c3.4-3.8,10.5-5.4,15.7-3.7l9.6,3.1l-7.3,8.1
			c-3.4,3.8-10.5,5.4-15.7,3.7L5.5,203.9z M21.7,242.9l4.9-9.8c2.3-4.5,8.7-8,14.2-7.7l10.1,0.5l-5,9.7c-2.3,4.5-8.7,8-14.2,7.7
			L21.7,242.9z M47.4,276.5l2.3-10.7c1-5,6.3-9.9,11.8-11.1l9.9-2.1l-2.3,10.7c-1,5-6.3,10-11.8,11.1L47.4,276.5z M81,302.2
			l-0.6-10.9c-0.3-5.1,3.5-11.2,8.5-13.8l9-4.6l0.6,10.9c0.3,5.1-3.5,11.3-8.5,13.8L81,302.2z M162,49.3c21.5,0,41.6,6,58.7,16.5
			c-102.6,26-163.7,122.9-96.5,202.4C80.5,252.6,49.3,210.9,49.3,162C49.3,99.7,99.7,49.3,162,49.3z"/>
	</defs>
	<clipPath id="SVGID_5_">
		<use xlink:href="#SVGID_4_"  style="overflow:visible;"/>
	</clipPath>
	<linearGradient id="SVGID_6_" gradientUnits="userSpaceOnUse" x1="107.707" y1="210.048" x2="148.5269" y2="40.568">
		<stop  offset="0" style="stop-color:#FF6600"/>
		<stop  offset="1" style="stop-color:#FFD900"/>
	</linearGradient>
	<rect class="st2" width="243.8" height="302.2"/>
</g>
</svg>
